<mxfile host="app.diagrams.net" agent="Mozilla/5.0 (Windows NT 10.0; Win64; x64; rv:138.0) Gecko/20100101 Firefox/138.0" version="27.0.6" pages="2">
  <diagram name="Component Solution Overview" id="EVf_Tnk-D4SarBvRRWFY">
    <mxGraphModel dx="1682" dy="2004" grid="1" gridSize="10" guides="1" tooltips="1" connect="1" arrows="1" fold="1" page="1" pageScale="1" pageWidth="850" pageHeight="1100" math="0" shadow="0">
      <root>
        <mxCell id="0" />
        <mxCell id="1" parent="0" />
        <mxCell id="kZAg9J5JLEWKbaA04rke-2" value="&lt;blockquote&gt;&lt;h2 align=&quot;left&quot;&gt;Ontology&lt;/h2&gt;&lt;/blockquote&gt;" style="rounded=1;whiteSpace=wrap;html=1;align=left;" parent="1" vertex="1">
          <mxGeometry y="60" width="850" height="100" as="geometry" />
        </mxCell>
        <mxCell id="kZAg9J5JLEWKbaA04rke-3" value="Domain Defined, Rules Driven Policy Change Process Component Overview" style="text;html=1;align=center;verticalAlign=middle;resizable=0;points=[];autosize=1;strokeColor=none;fillColor=none;" parent="1" vertex="1">
          <mxGeometry x="210" y="-40" width="430" height="30" as="geometry" />
        </mxCell>
        <mxCell id="kZAg9J5JLEWKbaA04rke-7" value="&lt;blockquote&gt;&lt;h2 align=&quot;left&quot;&gt;Architecture&lt;/h2&gt;&lt;/blockquote&gt;" style="rounded=1;whiteSpace=wrap;html=1;align=left;" parent="1" vertex="1">
          <mxGeometry y="190" width="850" height="100" as="geometry" />
        </mxCell>
        <mxCell id="kZAg9J5JLEWKbaA04rke-8" value="&lt;blockquote&gt;&lt;h2&gt;Implementation&lt;/h2&gt;&lt;/blockquote&gt;" style="rounded=1;whiteSpace=wrap;html=1;align=left;" parent="1" vertex="1">
          <mxGeometry y="320" width="850" height="100" as="geometry" />
        </mxCell>
        <mxCell id="kZAg9J5JLEWKbaA04rke-10" value="&lt;h2&gt;Process&lt;/h2&gt;" style="rounded=1;whiteSpace=wrap;html=1;verticalAlign=top;" parent="1" vertex="1">
          <mxGeometry x="424" width="170" height="440" as="geometry" />
        </mxCell>
        <mxCell id="kZAg9J5JLEWKbaA04rke-13" value="&lt;h2 align=&quot;center&quot; style=&quot;margin-top: 16.08px; margin-bottom: 16.08px; padding: 0px;&quot;&gt;Entity&lt;/h2&gt;" style="rounded=1;whiteSpace=wrap;html=1;align=center;verticalAlign=top;" parent="1" vertex="1">
          <mxGeometry x="214" width="170" height="440" as="geometry" />
        </mxCell>
        <mxCell id="kZAg9J5JLEWKbaA04rke-14" value="&lt;h2&gt;Rules&lt;/h2&gt;" style="rounded=1;whiteSpace=wrap;html=1;verticalAlign=top;" parent="1" vertex="1">
          <mxGeometry x="634" width="170" height="440" as="geometry" />
        </mxCell>
        <mxCell id="kZAg9J5JLEWKbaA04rke-15" value="Policy Domain Model" style="rounded=1;whiteSpace=wrap;html=1;" parent="1" vertex="1">
          <mxGeometry x="230" y="210" width="140" height="60" as="geometry" />
        </mxCell>
        <mxCell id="kZAg9J5JLEWKbaA04rke-16" value="Policy Change Orchestration" style="rounded=1;whiteSpace=wrap;html=1;" parent="1" vertex="1">
          <mxGeometry x="440" y="210" width="140" height="60" as="geometry" />
        </mxCell>
        <mxCell id="kZAg9J5JLEWKbaA04rke-17" value="&lt;div&gt;Policy Change Type&amp;nbsp;&lt;/div&gt;&lt;div&gt;Rule Sets&lt;/div&gt;" style="rounded=1;whiteSpace=wrap;html=1;" parent="1" vertex="1">
          <mxGeometry x="650" y="210" width="140" height="60" as="geometry" />
        </mxCell>
        <mxCell id="kZAg9J5JLEWKbaA04rke-18" value="PolicyVx" style="rounded=1;whiteSpace=wrap;html=1;" parent="1" vertex="1">
          <mxGeometry x="230" y="340" width="140" height="60" as="geometry" />
        </mxCell>
        <mxCell id="kZAg9J5JLEWKbaA04rke-21" value="Policy" style="rounded=1;whiteSpace=wrap;html=1;" parent="1" vertex="1">
          <mxGeometry x="230" y="80" width="140" height="60" as="geometry" />
        </mxCell>
        <mxCell id="kZAg9J5JLEWKbaA04rke-22" value="Policy Change" style="rounded=1;whiteSpace=wrap;html=1;" parent="1" vertex="1">
          <mxGeometry x="440" y="80" width="140" height="60" as="geometry" />
        </mxCell>
        <mxCell id="kZAg9J5JLEWKbaA04rke-23" value="Policy Change Rules" style="rounded=1;whiteSpace=wrap;html=1;" parent="1" vertex="1">
          <mxGeometry x="650" y="80" width="140" height="60" as="geometry" />
        </mxCell>
        <mxCell id="kZAg9J5JLEWKbaA04rke-24" value="PolicyChangeSaga" style="rounded=1;whiteSpace=wrap;html=1;" parent="1" vertex="1">
          <mxGeometry x="440" y="340" width="140" height="60" as="geometry" />
        </mxCell>
        <mxCell id="kZAg9J5JLEWKbaA04rke-25" value="&lt;div align=&quot;center&quot;&gt;PolicyChange.AddDriver Ruleset&lt;/div&gt;" style="rounded=1;whiteSpace=wrap;html=1;align=center;" parent="1" vertex="1">
          <mxGeometry x="649" y="340" width="140" height="60" as="geometry" />
        </mxCell>
      </root>
    </mxGraphModel>
  </diagram>
  <diagram id="JW-ETXzxixlRKIvKUzZ6" name="Rules System Architecure">
    <mxGraphModel dx="1160" dy="623" grid="1" gridSize="10" guides="1" tooltips="1" connect="1" arrows="1" fold="1" page="1" pageScale="1" pageWidth="850" pageHeight="1100" math="0" shadow="0">
      <root>
        <mxCell id="0" />
        <mxCell id="1" parent="0" />
        <mxCell id="kPzutv7A3pegYZWSqWQ8-1" value="&lt;div&gt;RuleSet Type &lt;br&gt;&lt;/div&gt;" style="rounded=1;whiteSpace=wrap;html=1;" vertex="1" parent="1">
          <mxGeometry x="100" y="110" width="120" height="60" as="geometry" />
        </mxCell>
        <mxCell id="INqIZIjldkIwvL5M9Omt-1" value="" style="rounded=1;whiteSpace=wrap;html=1;" vertex="1" parent="1">
          <mxGeometry x="260" y="80" width="120" height="60" as="geometry" />
        </mxCell>
        <mxCell id="INqIZIjldkIwvL5M9Omt-2" value="" style="rounded=1;whiteSpace=wrap;html=1;" vertex="1" parent="1">
          <mxGeometry x="280" y="250" width="120" height="60" as="geometry" />
        </mxCell>
        <mxCell id="INqIZIjldkIwvL5M9Omt-3" value="" style="rounded=1;whiteSpace=wrap;html=1;" vertex="1" parent="1">
          <mxGeometry x="100" width="120" height="60" as="geometry" />
        </mxCell>
      </root>
    </mxGraphModel>
  </diagram>
</mxfile>
